<svg width="20" height="20" viewBox="0 0 20 20" fill="none" xmlns="http://www.w3.org/2000/svg">
<g id="speaker.slash.fill">
<path id="speaker.slash.fill_2" d="M13.2081 11.3405V5.34664C13.2081 4.89934 12.8801 4.5415 12.4208 4.5415C12.1167 4.5415 11.902 4.67271 11.574 4.98284L9.25992 7.12392C9.23607 7.14777 9.20625 7.16567 9.17643 7.16567H9.02733L13.2081 11.3405ZM15.2955 15.8015C15.4804 15.9805 15.7845 15.9864 15.9635 15.8015C16.1483 15.6107 16.1483 15.3125 15.9635 15.1276L5.51453 4.68464C5.32964 4.49976 5.02548 4.49379 4.83463 4.68464C4.65571 4.86356 4.65571 5.17369 4.83463 5.35261L15.2955 15.8015ZM7.2262 12.414H8.90805C8.96172 12.414 9.00943 12.4319 9.04522 12.4677L11.574 14.8175C11.8722 15.1038 12.1226 15.229 12.4268 15.229C12.7727 15.229 13.0351 15.0501 13.1544 14.6982L6.20635 7.7561C6.00357 7.98274 5.89622 8.31672 5.89622 8.75806V11.0244C5.89622 11.9548 6.34949 12.414 7.2262 12.414Z" fill="black"/>
</g>
</svg>
