<svg width="24" height="24" viewBox="0 0 24 24" fill="none" xmlns="http://www.w3.org/2000/svg">
<g id="Sort">
<path id="Vector" d="M4.86837 11H3.41603C3.05924 11 2.81726 10.637 2.95449 10.3077L5.87131 3.30768C5.94894 3.12137 6.131 3 6.33284 3H7.66618C7.86803 3 8.05009 3.12137 8.12772 3.30769L11.0444 10.3077C11.1817 10.637 10.9397 11 10.5829 11H9.46609C9.26318 11 9.08039 10.8774 9.00344 10.6896L8.72082 10H5.27821L4.86837 11ZM6.09788 8H7.90115L6.99952 5.8L6.09788 8ZM18.9994 16V3.5C18.9994 3.22386 18.7756 3 18.4994 3H17.4994C17.2233 3 16.9994 3.22386 16.9994 3.5V16H15.0397C14.6205 16 14.3874 16.485 14.6493 16.8123L17.609 20.512C17.8091 20.7622 18.1897 20.7622 18.3899 20.512L21.3495 16.8123C21.6114 16.485 21.3784 16 20.9591 16H18.9994ZM10.9994 13.5C10.9994 13.2239 10.7756 13 10.4994 13H3.49944C3.22329 13 2.99944 13.2239 2.99944 13.5V14.5C2.99944 14.7761 3.22329 15 3.49944 15H7.85366L3.18147 18.85C3.0662 18.945 2.99944 19.0865 2.99944 19.2359V20.5C2.99944 20.7761 3.22329 21 3.49944 21H10.4994C10.7756 21 10.9994 20.7761 10.9994 20.5V19.5C10.9994 19.2239 10.7756 19 10.4994 19H6.14557L10.8174 15.15C10.9327 15.055 10.9994 14.9135 10.9994 14.7641V13.5Z" fill="#959596"/>
</g>
</svg>
