<svg width="24" height="24" viewBox="0 0 24 24" fill="none" xmlns="http://www.w3.org/2000/svg">
<g id="Sounds">
<path id="Vector" d="M7 14.9997H4C3.71667 14.9997 3.47933 14.9037 3.288 14.7117C3.09667 14.5197 3.00067 14.2824 3 13.9997V9.99969C3 9.71636 3.096 9.47903 3.288 9.2877C3.48 9.09636 3.71733 9.00036 4 8.9997H7L10.3 5.69969C10.6167 5.38303 10.9793 5.31203 11.388 5.48669C11.7967 5.66136 12.0007 5.97403 12 6.42469V17.5747C12 18.0247 11.796 18.3374 11.388 18.5127C10.98 18.688 10.6173 18.617 10.3 18.2997L7 14.9997Z" fill="#959596" stroke="#959596" stroke-width="2"/>
<path id="Vector_2" d="M15 8.69379C15.7217 9.43886 16.1288 10.4482 16.1327 11.5019C16.1366 12.5556 15.737 13.5682 15.0209 14.319M18.1874 7C19.3421 8.19201 19.9936 9.80692 20 11.4928C20.0063 13.1786 19.3671 14.7987 18.2215 16" stroke="#959596" stroke-width="2" stroke-linecap="round"/>
</g>
</svg>
